<svg width="16" height="16" viewBox="0 0 16 16" fill="none" xmlns="http://www.w3.org/2000/svg">
<path d="M6 10C6 8.11467 6 7.17133 6.586 6.586C7.17133 6 8.11467 6 10 6H10.6667C12.552 6 13.4953 6 14.0807 6.586C14.6667 7.17133 14.6667 8.11467 14.6667 10V10.6667C14.6667 12.552 14.6667 13.4953 14.0807 14.0807C13.4953 14.6667 12.552 14.6667 10.6667 14.6667H10C8.11467 14.6667 7.17133 14.6667 6.586 14.0807C6 13.4953 6 12.552 6 10.6667V10Z" stroke="#545454" stroke-linecap="round" stroke-linejoin="round"/>
<path d="M11.334 6.00065C11.332 4.02932 11.3027 3.00798 10.7287 2.30865C10.6179 2.17375 10.4942 2.05005 10.3593 1.93932C9.62065 1.33398 8.52598 1.33398 6.33398 1.33398C4.14265 1.33398 3.04665 1.33398 2.30865 1.93932C2.17375 2.05005 2.05005 2.17375 1.93932 2.30865C1.33398 3.04732 1.33398 4.14198 1.33398 6.33398C1.33398 8.52532 1.33398 9.62132 1.93932 10.3593C2.05005 10.4942 2.17375 10.6179 2.30865 10.7287C3.00865 11.302 4.02865 11.3327 6.00065 11.334" stroke="#545454" stroke-linecap="round" stroke-linejoin="round"/>
</svg>
