<svg width="16" height="16" viewBox="0 0 16 16" fill="none" xmlns="http://www.w3.org/2000/svg">
<path d="M11.3346 9.33268L11.3346 1.33268M6.0013 12.0793L6.66797 9.33268L2.7813 9.33268C2.57431 9.33268 2.37016 9.28449 2.18502 9.19192C1.99988 9.09935 1.83883 8.96494 1.71463 8.79935C1.59044 8.63375 1.5065 8.44152 1.46948 8.23786C1.43245 8.03421 1.44334 7.82473 1.5013 7.62602L3.05464 2.29268C3.13541 2.01573 3.30384 1.77245 3.53463 1.59935C3.76543 1.42625 4.04614 1.33268 4.33464 1.33268L13.3346 1.33268C13.6883 1.33268 14.0274 1.47316 14.2774 1.72321C14.5275 1.97326 14.668 2.31239 14.668 2.66602L14.668 7.99935C14.668 8.35297 14.5275 8.69211 14.2774 8.94216C14.0274 9.19221 13.6883 9.33268 13.3346 9.33268H11.4946C11.2466 9.33281 11.0035 9.40214 10.7927 9.53287C10.5819 9.6636 10.4117 9.85054 10.3013 10.0727L8.0013 14.666C7.68692 14.6621 7.37748 14.5872 7.0961 14.447C6.81472 14.3067 6.56868 14.1046 6.37637 13.8559C6.18405 13.6071 6.05042 13.3182 5.98548 13.0105C5.92053 12.7029 5.92594 12.3846 6.0013 12.0793Z" stroke="#545454" stroke-linecap="round" stroke-linejoin="round"/>
</svg>
