<svg width="16" height="16" viewBox="0 0 16 16" fill="none" xmlns="http://www.w3.org/2000/svg">
<path d="M4.66536 6.66732L4.66536 14.6673ZM9.9987 3.92065L9.33203 6.66732L13.2187 6.66732C13.4257 6.66732 13.6298 6.71551 13.815 6.80808C14.0001 6.90065 14.1612 7.03506 14.2854 7.20065C14.4096 7.36625 14.4935 7.55848 14.5305 7.76214C14.5676 7.96579 14.5567 8.17527 14.4987 8.37398L12.9454 13.7073C12.8646 13.9843 12.6962 14.2276 12.4654 14.4007C12.2346 14.5737 11.9539 14.6673 11.6654 14.6673L2.66536 14.6673C2.31174 14.6673 1.9726 14.5268 1.72256 14.2768C1.47251 14.0267 1.33203 13.6876 1.33203 13.334L1.33203 8.00065C1.33203 7.64703 1.47251 7.30789 1.72256 7.05784C1.9726 6.80779 2.31174 6.66732 2.66536 6.66732H4.50536C4.75342 6.66719 4.99652 6.59786 5.20733 6.46713C5.41815 6.3364 5.58831 6.14946 5.6987 5.92732L7.9987 1.33398C8.31308 1.33788 8.62252 1.41276 8.9039 1.55305C9.18528 1.69333 9.43132 1.89539 9.62363 2.14412C9.81595 2.39285 9.94958 2.68182 10.0145 2.98945C10.0795 3.29708 10.0741 3.61541 9.9987 3.92065Z" fill="#0961F5"/>
<path d="M4.66536 6.66732L4.66536 14.6673M9.9987 3.92065L9.33203 6.66732L13.2187 6.66732C13.4257 6.66732 13.6298 6.71551 13.815 6.80808C14.0001 6.90065 14.1612 7.03506 14.2854 7.20065C14.4096 7.36625 14.4935 7.55848 14.5305 7.76214C14.5676 7.96579 14.5567 8.17527 14.4987 8.37398L12.9454 13.7073C12.8646 13.9843 12.6962 14.2276 12.4654 14.4007C12.2346 14.5737 11.9539 14.6673 11.6654 14.6673L2.66536 14.6673C2.31174 14.6673 1.9726 14.5268 1.72256 14.2768C1.47251 14.0267 1.33203 13.6876 1.33203 13.334L1.33203 8.00065C1.33203 7.64703 1.47251 7.30789 1.72256 7.05784C1.9726 6.80779 2.31174 6.66732 2.66536 6.66732H4.50536C4.75342 6.66719 4.99652 6.59786 5.20733 6.46713C5.41815 6.3364 5.58831 6.14946 5.6987 5.92732L7.9987 1.33398C8.31308 1.33788 8.62252 1.41276 8.9039 1.55305C9.18528 1.69333 9.43132 1.89539 9.62363 2.14412C9.81595 2.39285 9.94958 2.68182 10.0145 2.98945C10.0795 3.29708 10.0741 3.61541 9.9987 3.92065Z" stroke="#545454" stroke-linecap="round" stroke-linejoin="round"/>
</svg>
