<svg width="27" height="26" viewBox="0 0 27 26" fill="none" xmlns="http://www.w3.org/2000/svg">
<path d="M8.38572 12.1398C7.63595 12.1398 7.02808 12.7378 7.02808 13.4756C7.02808 14.2132 7.63595 14.8112 8.38572 14.8112C9.13548 14.8112 9.74335 14.2132 9.74335 13.4756C9.74335 12.7378 9.13548 12.1398 8.38572 12.1398ZM8.50464 14.1484C8.46507 14.1517 8.42529 14.1517 8.38572 14.1484C8.00381 14.1161 7.72065 13.7853 7.75352 13.4094C7.78241 13.0785 8.04915 12.8159 8.38572 12.7875C8.76762 12.7552 9.10402 13.0335 9.13685 13.4094C9.1695 13.7853 8.88652 14.1161 8.50464 14.1484Z" fill="white" stroke="white" stroke-width="0.5"/>
<path d="M17.0627 12.1398C16.313 12.1371 15.7027 12.7327 15.7 13.4705C15.6972 14.2084 16.3027 14.8085 17.0526 14.8112C17.8026 14.8139 18.4127 14.2183 18.4154 13.4805V13.4754C18.4154 12.7397 17.8105 12.1427 17.0627 12.1398ZM17.7517 13.4705C17.7545 13.8449 17.4484 14.1507 17.0679 14.1534H17.0627V14.1484C16.6795 14.1511 16.3662 13.8476 16.3634 13.4705C16.3606 13.0934 16.6691 12.7853 17.0525 12.7825C17.4357 12.7798 17.749 13.0833 17.7518 13.4604C17.752 13.4639 17.7519 13.4672 17.7517 13.4705Z" fill="white" stroke="white" stroke-width="0.5"/>
<path d="M11.1575 13.4764C11.1602 11.7487 9.7389 10.3458 7.98275 10.343C6.22639 10.3403 4.80052 11.7386 4.79773 13.4663C4.79496 15.194 6.21631 16.5969 7.97246 16.5997H7.97761C9.73057 16.5969 11.152 15.201 11.1575 13.4764ZM7.97763 15.9469C6.58793 15.9469 5.46123 14.8385 5.46123 13.4713C5.46123 12.1041 6.58793 10.9957 7.97763 10.9957C9.36734 10.9957 10.494 12.1041 10.494 13.4713V13.4764C10.4913 14.8416 9.36536 15.9469 7.97763 15.9469Z" fill="white" stroke="white" stroke-width="0.5"/>
<path d="M17.456 10.3579C15.6998 10.3579 14.2761 11.7585 14.2761 13.4862C14.2761 15.2139 15.6998 16.6145 17.456 16.6145C19.2121 16.6145 20.6358 15.2139 20.6358 13.4862V13.4763C20.6275 11.7537 19.2072 10.3606 17.456 10.3579ZM19.9724 13.4862C19.9639 14.8475 18.8397 15.9468 17.456 15.9468V15.9569C16.0663 15.9569 14.9396 14.8485 14.9396 13.4813C14.9396 12.1142 16.0663 11.0057 17.456 11.0057C18.8457 11.0057 19.9724 12.1142 19.9724 13.4813V13.4862Z" fill="white" stroke="white" stroke-width="0.5"/>
<path d="M14.3117 17.3676C13.7464 17.6713 13.1336 17.852 12.4895 17.8547C11.7748 17.8607 11.0756 17.6484 10.4885 17.2472C10.5558 17.2133 10.6259 17.1847 10.6979 17.1619C10.8388 17.1216 10.9199 16.9768 10.8791 16.838C10.8382 16.6994 10.6908 16.6196 10.5499 16.6597C10.0544 16.78 9.664 17.1547 9.52905 17.6388C9.51758 17.7122 9.52134 17.8399 9.62126 17.8993C9.81894 18.0167 10.0067 17.7858 10.0906 17.5635C10.7759 18.071 11.6115 18.3428 12.4691 18.3369C13.2089 18.3358 13.9361 18.1491 14.5822 17.7946C14.7019 17.721 14.7463 17.561 14.6639 17.4481C14.5007 17.2248 14.3117 17.3676 14.3117 17.3676Z" fill="white" stroke="white" stroke-width="0.5"/>
<path d="M23.9841 11.8191H23.9789H23.3358V11.573C23.3358 9.35363 21.3349 7.55588 18.8798 7.55588H14.5515V7.30475C14.5515 6.75014 14.0944 6.30047 13.5307 6.30047H12.6426C12.5083 5.65611 12.6545 4.98587 13.0459 4.45249L13.638 5.17061C13.7957 5.3575 14.031 5.27846 14.1024 5.22084L16.1441 3.58894C16.2848 3.47778 16.3073 3.27552 16.1944 3.13711C16.193 3.13536 16.1916 3.13361 16.19 3.13186L14.5362 1.12325C14.425 0.983481 14.2196 0.958953 14.0775 1.06836C14.0755 1.06991 14.0735 1.07147 14.0716 1.07303L12.0299 2.70004C11.8892 2.81606 11.8688 3.02144 11.984 3.16199L12.7139 4.05085C12.1973 4.68216 11.9833 5.50249 12.127 6.30045H11.5195C10.9558 6.30045 10.4987 6.75014 10.4987 7.30473V7.55585H7.14015C4.68509 7.55585 2.68417 9.35849 2.68417 11.573V11.8191L2.03096 11.8189C1.4672 11.8134 1.00557 12.2584 1 12.813V12.8282V16.8101C1 17.3648 1.45709 17.8144 2.02083 17.8144H2.69222C2.77553 19.9636 4.73788 21.691 7.1403 21.691H9.80984C9.83794 22.6169 9.58367 23.5297 9.07988 24.3123C8.97045 24.4672 8.9853 24.6761 9.1157 24.8145C9.32881 25.0458 9.64657 24.9954 9.64657 24.9954C11.6883 24.5735 13.0969 22.4244 13.582 21.6963H18.8801C21.3352 21.6963 23.3361 19.8937 23.3361 17.6792V17.8248H23.9792C24.5429 17.8248 25 17.3751 25 16.8205V12.8285C25.0028 12.2736 24.548 11.8218 23.9841 11.8191ZM12.7039 2.99131L14.2352 1.77114L15.4704 3.27766L13.9391 4.49782L12.7039 2.99131ZM11.1727 7.29467C11.1727 7.09766 11.335 6.93803 11.535 6.93803H13.5409C13.7412 6.93803 13.9034 7.09766 13.9034 7.29467V7.54579H11.1573L11.1727 7.29467ZM2.03129 17.162C1.83124 17.1647 1.6666 17.0074 1.66383 16.8106V16.8056V12.8285C1.66383 12.6317 1.82609 12.4719 2.02614 12.4719H2.68467V17.1618L2.03129 17.162ZM18.8851 21.0939H13.2805C13.217 21.0939 13.1582 21.1264 13.125 21.1796L12.622 21.9876C11.9611 23.0975 10.9373 23.9542 9.71777 24.4181C10.1592 23.7085 10.4169 22.9034 10.4681 22.0731V21.3034C10.4681 21.2043 10.3866 21.1241 10.2858 21.1241H7.14019C5.04748 21.1241 3.34771 19.5927 3.34771 17.7046V11.5734C3.34771 9.68526 5.04748 8.14874 7.14019 8.14874H18.8798C20.9725 8.14874 22.6723 9.68526 22.6723 11.5734L22.6774 17.6747C22.6772 19.5628 20.9774 21.0942 18.8847 21.0942L18.8851 21.0939ZM23.9842 17.167H23.336V12.472H23.979C24.1793 12.472 24.3415 12.6317 24.3415 12.8285L24.3467 16.8104C24.3467 17.0074 24.1845 17.167 23.9842 17.167Z" fill="white" stroke="white" stroke-width="0.5"/>
<circle cx="21.5" cy="6.5" r="0.5" fill="white"/>
<circle cx="25.5" cy="4.5" r="1.5" fill="white"/>
<circle cx="24" cy="7" r="1" fill="white"/>
</svg>
